<svg width="208" height="56" viewBox="0 0 208 56" fill="none" xmlns="http://www.w3.org/2000/svg">
  <rect width="56" height="56" rx="18" fill="#163A46"/>
  <path d="M15 17H22L28 35L34 17H41L31 42H25L15 17Z" fill="#F6F4EE"/>
  <circle cx="43" cy="16" r="4" fill="#C7922D"/>
  <path d="M76 17H86.9C95.5 17 100 21.2 100 28.2C100 35.3 95.5 39.5 86.9 39.5H82V47H76V17ZM86.5 34.5C91.8 34.5 94.1 32.5 94.1 28.2C94.1 24 91.8 22 86.5 22H82V34.5H86.5Z" fill="#163A46"/>
  <path d="M105.545 17H127.545V22H111.545V29.4H125.445V34.3H111.545V42H127.545V47H105.545V17Z" fill="#163A46"/>
  <path d="M132.758 17H156.358V22H147.558V47H141.558V22H132.758V17Z" fill="#163A46"/>
  <path d="M157.846 17H181.446V22H172.646V47H166.646V22H157.846V17Z" fill="#163A46"/>
  <path d="M182.934 17H206.534V22H197.734V47H191.734V22H182.934V17Z" fill="#163A46"/>
</svg>
