<svg width="188" height="52" viewBox="0 0 188 52" fill="none" xmlns="http://www.w3.org/2000/svg">
  <rect x="0.5" y="0.5" width="51" height="51" rx="16" fill="#173743"/>
  <rect x="0.5" y="0.5" width="51" height="51" rx="16" stroke="#E4DED2"/>
  <path d="M13 16H20L26 33.5L32 16H39L29 40H23L13 16Z" fill="#F7F3EA"/>
  <circle cx="39" cy="14" r="3.5" fill="#C7922D"/>
  <path d="M69.12 15.96H76.04L84.8 38.56L93.64 15.96H100.4L87.76 46H81.68L69.12 15.96Z" fill="#173743"/>
  <path d="M108.696 46.56C106.376 46.56 104.29 46.0267 102.44 44.96C100.643 43.84 99.2034 42.3467 98.1201 40.48C97.0901 38.56 96.5751 36.4133 96.5751 34.04C96.5751 31.6667 97.0901 29.5467 98.1201 27.68C99.2034 25.76 100.643 24.2667 102.44 23.2C104.29 22.08 106.35 21.52 108.62 21.52C110.94 21.52 112.973 22.0533 114.72 23.12C116.467 24.1867 117.828 25.6267 118.804 27.44C119.835 29.2533 120.35 31.2667 120.35 33.48C120.35 33.9067 120.324 34.36 120.272 34.84C120.272 35.2667 120.246 35.7467 120.195 36.28H101.355C101.613 38.6267 102.513 40.44 104.055 41.72C105.648 42.9467 107.446 43.56 109.448 43.56C111.041 43.56 112.378 43.2133 113.458 42.52C114.591 41.7733 115.441 40.8 116.009 39.6H119.886C119.164 41.7333 117.854 43.52 115.957 44.96C114.108 45.8667 111.687 46.56 108.696 46.56ZM108.696 24.52C106.797 24.52 105.101 25.08 103.61 26.2C102.171 27.2667 101.381 28.9467 101.239 31.24H115.849C115.746 29.0533 114.95 27.4 113.458 26.28C111.967 25.1067 110.38 24.52 108.696 24.52Z" fill="#173743"/>
  <path d="M128.025 46V24.92H123.991V21.96H128.025V15.32H131.67V21.96H138.154V24.92H131.67V46H128.025Z" fill="#173743"/>
  <path d="M144.386 46V24.92H140.352V21.96H144.386V15.32H148.031V21.96H154.515V24.92H148.031V46H144.386Z" fill="#173743"/>
</svg>
